<svg width="100" height="100" xmlns="http://www.w3.org/2000/svg"><path d="M91.219 77.93c-1.527 3.494-3.333 6.71-5.426 9.667-2.853 4.03-5.189 6.82-6.989 8.37-2.79 2.543-5.78 3.845-8.982 3.92-2.298 0-5.07-.649-8.297-1.963-3.237-1.309-6.212-1.957-8.932-1.957-2.853 0-5.913.648-9.185 1.957-3.278 1.314-5.918 2-7.937 2.067-3.07.13-6.13-1.21-9.185-4.024-1.95-1.685-4.389-4.574-7.31-8.667-3.134-4.37-5.711-9.438-7.73-15.215C9.084 65.845 8 59.8 8 53.95c0-6.702 1.461-12.482 4.388-17.326 2.3-3.89 5.36-6.96 9.191-9.212 3.83-2.253 7.969-3.401 12.426-3.475 2.438 0 5.636.748 9.61 2.217 3.963 1.474 6.508 2.221 7.623 2.221.834 0 3.66-.874 8.453-2.616 4.531-1.616 8.356-2.285 11.49-2.022 8.49.68 14.868 3.996 19.11 9.97-7.594 4.56-11.35 10.946-11.275 19.137.069 6.381 2.404 11.69 6.995 15.907A23.007 23.007 0 0 0 93 73.295a74.432 74.432 0 0 1-1.781 4.635zM71.747 2c0 5.002-1.844 9.671-5.519 13.993-4.435 5.138-9.8 8.108-15.617 7.639a15.43 15.43 0 0 1-.117-1.895c0-4.801 2.11-9.94 5.855-14.14 1.87-2.127 4.248-3.896 7.132-5.307C66.36.9 69.081.132 71.641 0c.075.669.106 1.337.106 2z" fill="#000" fill-rule="nonzero"/></svg>