<svg width="100" height="100" xmlns="http://www.w3.org/2000/svg"><g fill="none" fill-rule="evenodd"><path fill="#FDB300" d="M21.818 7.963L50 5l28.182 2.963L100 37.093 50 95 0 37.093z"/><path fill="#EA6C00" d="M20.212 37l29.687 57.985L0 37zm59.375 0L49.899 94.985 99.8 37z"/><path fill="#FDAD00" d="M20.212 37h59.375L49.899 94.985z"/><path fill="#FDD231" d="M49.9 5L21.773 7.952 20.212 36.97zm0 0l28.124 2.952 1.563 29.018z"/><path fill="#FDAD00" d="M99.798 36.97L78.024 7.952l1.563 29.018zM0 36.97L21.774 7.952 20.212 36.97z"/><path fill="#FEEEB7" d="M49.9 5L20.211 36.97h59.375z"/></g></svg>